<svg xmlns="http://www.w3.org/2000/svg" viewBox="0 0 80 74"><defs><style>.cls-1{fill:#ffc40c;}.cls-2{fill:#fff;}</style></defs><title>არჩეული icon</title><g id="_1" data-name="1"><circle class="cls-1" cx="40" cy="37" r="28"/><g id="_335_Bubble_chat_comment" data-name="335, Bubble, chat, comment"><path class="cls-2" d="M46.1,34.78A2.15,2.15,0,0,0,44,36.93,2.1,2.1,0,0,0,46.1,39a2.12,2.12,0,1,0,0-4.24Zm0,2.83a.74.74,0,1,1,0-1.47.74.74,0,0,1,0,1.47Z"/><path class="cls-2" d="M40.44,34.78a2.15,2.15,0,0,0-2.15,2.15A2.1,2.1,0,0,0,40.44,39a2.12,2.12,0,1,0,0-4.24Zm0,2.83a.74.74,0,1,1,.74-.74A.75.75,0,0,1,40.44,37.61Z"/><path class="cls-2" d="M34.78,34.78a2.15,2.15,0,0,0-2.15,2.15A2.1,2.1,0,0,0,34.78,39a2.12,2.12,0,1,0,0-4.24Zm0,2.83a.74.74,0,1,1,.74-.74A.75.75,0,0,1,34.78,37.61Z"/><path class="cls-2" d="M40.44,21.31A15.55,15.55,0,0,0,24.88,36.87a15.32,15.32,0,0,0,2.49,8.43l-2.15,6.51a.72.72,0,0,0,.91.9l7-2.15a15.27,15.27,0,0,0,7.41,1.87,15.56,15.56,0,0,0-.06-31.12Zm0,29.71a14.05,14.05,0,0,1-7-1.87.72.72,0,0,0-.57-.06L27,50.9l1.81-5.49a.63.63,0,0,0-.12-.62A14.14,14.14,0,1,1,40.44,51Z"/></g></g></svg>